<?xml version="1.0" encoding="UTF-8" standalone="no"?>
<!DOCTYPE svg PUBLIC "-//W3C//DTD SVG 1.1//EN" "http://www.w3.org/Graphics/SVG/1.1/DTD/svg11.dtd">
<!--Generated by Intaglio, www.PurgatoryDesign.com-->
<svg version="1.1" viewBox="7,72,538,370" width="538" height="370" xmlns="http://www.w3.org/2000/svg" xmlns:xlink="http://www.w3.org/1999/xlink"><path fill="#fffffe" stroke="#000100" d="M8,73 L544,73 L544,441 L8,441 L8,73 Z"/><text fill="#000100" font-family="Helvetica" font-weight="bold" font-size="12" transform="matrix(1,0,0,1,151.961,155)" xml:space="preserve"><tspan>Work Item</tspan></text><text fill="#000100" font-family="Helvetica" font-weight="bold" font-size="12" transform="matrix(1,0,0,1,151,175)" xml:space="preserve"><tspan>Issue</tspan></text><text fill="#000100" font-family="Helvetica" font-weight="bold" font-size="12" transform="matrix(1,0,0,1,152.096,195)" xml:space="preserve"><tspan>Defect</tspan></text><text fill="#000100" font-family="Helvetica" font-weight="bold" font-size="12" transform="matrix(1,0,0,1,151.293,216)" xml:space="preserve"><tspan>Bug</tspan></text><text fill="#000100" font-family="Helvetica" font-weight="bold" font-size="12" transform="matrix(1,0,0,1,339,187.971)" xml:space="preserve"><tspan>Commit</tspan></text><text fill="#000100" font-family="Helvetica" font-weight="bold" font-size="12" transform="matrix(1,0,0,1,339,213.67)" xml:space="preserve"><tspan>Changeset</tspan></text><text fill="#000100" font-family="Helvetica" font-weight="bold" font-size="12" transform="matrix(1,0,0,1,338.473,237.784)" xml:space="preserve"><tspan>Revision</tspan></text><text fill="#000100" font-family="Helvetica" font-weight="bold" font-size="12" transform="matrix(1,0,0,1,151.984,235.906)" xml:space="preserve"><tspan>Ticket</tspan></text><text fill="#000100" font-family="Helvetica" font-weight="bold" font-size="12" transform="matrix(1,0,0,1,339,260.187)" xml:space="preserve"><tspan>Card deck</tspan></text><text fill="#000100" font-family="Helvetica" font-weight="bold" font-size="12" transform="matrix(1,0,0,1,151.152,256)" xml:space="preserve"><tspan>Feature</tspan></text><text fill="#000100" font-family="Helvetica" font-size="12" transform="matrix(1,0,0,1,27,198.884)" xml:space="preserve"><tspan>Oh, you mean</tspan></text><text fill="#000100" font-family="Helvetica" font-weight="bold" font-size="12" transform="matrix(1,0,0,1,150.818,277)" xml:space="preserve"><tspan>PR</tspan></text><text fill="#000100" font-family="Helvetica" font-size="12" transform="matrix(1,0,0,1,234.002,201.798)" xml:space="preserve"><tspan>#812-4688B?</tspan><tspan x="0" y="16">  I was sure</tspan><tspan x="0" y="32">     that was</tspan><tspan x="0" y="48">       fixed in</tspan></text><path fill="none" stroke="#000100" d="M112,195 L146,151"/><path fill="none" stroke="#000100" d="M111,197 L148,172"/><path fill="none" stroke="#000100" d="M114,197 L150,193"/><path fill="none" stroke="#000100" d="M113,198 L148,213"/><path fill="none" stroke="#000100" d="M110,199 L147,234"/><path fill="none" stroke="#000100" d="M110,199 L145,253"/><path fill="none" stroke="#000100" d="M109,200 L146,274"/><text fill="#000100" font-family="Helvetica" font-size="12" transform="matrix(6.43533,0,0,15.9479,200.662,260.94)" xml:space="preserve"><tspan>}</tspan></text><path fill="none" stroke="#000100" d="M299,249 L336,187"/><path fill="none" stroke="#000100" d="M298,252 L336,211"/><path fill="none" stroke="#000100" d="M298,252 L335,237"/><path fill="none" stroke="#000100" d="M299,252 L331,260"/><text fill="#000100" font-family="Helvetica" font-size="12" transform="matrix(6.43533,0,0,9.43527,401.662,252.891)" xml:space="preserve"><tspan>}</tspan></text><text fill="#000100" font-family="Helvetica" font-size="12" transform="matrix(1,0,0,1,440,229)" xml:space="preserve"><tspan>#4040404…</tspan></text><text fill="#000100" font-family="Helvetica" font-size="12" transform="matrix(1,0,0,1,48,345)" xml:space="preserve"><tspan>Let me just run</tspan></text><text fill="#000100" font-family="Helvetica" font-weight="bold" font-size="12" transform="matrix(1,0,0,1,149.818,321)" xml:space="preserve"><tspan>git pull</tspan><tspan x="0" y="16">svn up</tspan><tspan x="0" y="32">hg fpull</tspan><tspan x="0" y="48">co -u</tspan><tspan x="0" y="64">rsync</tspan><tspan x="0" y="80">uucp</tspan><tspan x="0" y="96">cvs update</tspan></text><text fill="#000100" font-family="Helvetica" font-size="12" transform="matrix(6.43533,0,0,9.70291,217.662,394.235)" xml:space="preserve"><tspan>}</tspan></text><path fill="none" stroke="#000100" d="M122,342 L143,323"/><path fill="none" stroke="#000100" d="M125,339 L142,393"/><path fill="none" stroke="#000100" d="M149,380 L121,339"/><path fill="none" stroke="#000100" d="M125,339 L144,365"/><path fill="none" stroke="#000100" d="M148,350 L125,340"/><path fill="none" stroke="#000100" d="M125,339 L148,335"/><text fill="#000100" font-family="Helvetica" font-size="12" transform="matrix(1,0,0,1,255,367)" xml:space="preserve"><tspan>and make sure I'm up to date…</tspan></text><text fill="#000100" font-family="Helvetica" font-size="12" transform="matrix(1,0,0,1,441,433.5)" xml:space="preserve"><tspan>https://git.io/srl295</tspan></text></svg>
